{"title":"Daddy's Home 2016 Movies HD TS XviD New Source with Sample ☻rDX☻","uid":13221155,"size":740315172,"categoryP":"video","categoryS":"movies","magnet":"?xt=urn:btih:c2a66c617bbc12edf37f391ca329a7a0b13e22f8&amp;dn=Daddy%27s+Home+2016+Movies+HD+TS+XviD+New+Source+with+Sample+%E2%98%BBrDX%E2%98%BB&amp;tr=udp%3A%2F%2Ftracker.leechers-paradise.org%3A6969&amp;tr=udp%3A%2F%2Fzer0day.ch%3A1337&amp;tr=udp%3A%2F%2Fopen.demonii.com%3A1337&amp;tr=udp%3A%2F%2Ftracker.coppersurfer.tk%3A6969&amp;tr=udp%3A%2F%2Fexodus.desync.com%3A6969","seeders":3,"leechers":4,"uploader":"basicssom","files":2,"time":1452785018,"description":"----------------------------------------------------------------\r\nDaddy's Home 2016 English Movies HD TS XviD AAC New Source with Sample ~ ☻rDX☻\r\n\r\nSCREEN SHOTS &amp; POSTER:\r\n  \nhttp://doctorhosts.com/2016/1/DaddysHome/11.html  \nhttp://doctorhosts.com/2016/1/DaddysHome/1.html  \nhttp://doctorhosts.com/2016/1/DaddysHome/2.html  \nhttp://doctorhosts.com/2016/1/DaddysHome/3.html  \nhttp://doctorhosts.com/2016/1/DaddysHome/4.html  \nhttp://doctorhosts.com/2016/1/DaddysHome/5.html  \nhttp://doctorhosts.com/2016/1/DaddysHome/6.html  \nhttp://doctorhosts.com/2016/1/DaddysHome/7.html  \nhttp://doctorhosts.com/2016/1/DaddysHome/8.html  \nhttp://doctorhosts.com/2016/1/DaddysHome/9.html  \nhttp://doctorhosts.com/2016/1/DaddysHome/10.html\r\n\r\nFormat                                   : Matroska\r\nFormat version                           : Version 4 / Version 2\r\nFile size                                : 694 MiB\r\nDuration                                 : 1h 31mn\r\nOverall bit rate                         : 1 060 Kbps\r\nMovie name                               : Daddy's Home 2016 English Movies HD TS XviD AAC New Source ~ rDX ~\r\n\r\nVideo\r\nID                                       : 1\r\nFormat                                   : MPEG-4 Visual\r\nFormat profile                           : Advanced   \r\nFormat settings, BVOP                    : Yes\r\nFormat settings, QPel                    : No\r\nFormat settings, GMC                     : No warppoints\r\nFormat settings, Matrix                  : Default (H.263)\r\nCodec ID                                 : V_MS/VFW/FOURCC / XVID\r\nCodec ID/Hint                            : XviD\r\nDuration                                 : 1h 31mn\r\nBit rate                                 : 911 Kbps\r\nWidth                                    : 640 pixels\r\nHeight                                   : 352 pixels\r\nDisplay aspect ratio                     : 16:9\r\nFrame rate mode                          : Constant\r\nFrame rate                               : 23.976 fps\r\nColor space                              : YUV\r\nChroma subsampling                       : 4:2:0\r\nBit depth                                : 8 bits\r\nScan type                                : Progressive\r\nCompression mode                         : Lossy\r\nBits/(Pixel*Frame)                       : 0.169\r\nStream size                              : 596 MiB (86%)\r\nTitle                                    : ~ rDX ~\r\nWriting library                          : XviD 65\r\nDefault                                  : Yes\r\nForced                                   : No\r\n\r\nAudio\r\nID                                       : 2\r\nFormat                                   : MPEG Audio\r\nFormat version                           : Version 1\r\nFormat profile                           : Layer 3\r\nMode                                     : Joint stereo\r\nMode extension                           : MS Stereo\r\nCodec ID                                 : A_MPEG/L3\r\nCodec ID/Hint                            : MP3\r\nDuration                                 : 1h 31mn\r\nBit rate mode                            : Constant\r\nBit rate                                 : 128 Kbps\r\nChannel(s)                               : 2 channels\r\nSampling rate                            : 44.1 KHz\r\nCompression mode                         : Lossy\r\nStream size                              : 83.7 MiB (12%)\r\nTitle                                    : ~ rDX ~\r\nWriting library                          : LAME3.99r\r\nEncoding settings                        : -m j -V 4 -q 3 -lowpass 17 -b 128\r\nDefault                                  : Yes\r\nForced                                   : No\r\n\r\nIMDB                                      \nhttp://www.imdb.com/title/tt1528854/","torrent":{"xt":"urn:btih:c2a66c617bbc12edf37f391ca329a7a0b13e22f8","amp;dn":"Daddy%27s+Home+2016+Movies+HD+TS+XviD+New+Source+with+Sample+%E2%98%BBrDX%E2%98%BB","amp;tr":["udp%3A%2F%2Ftracker.leechers-paradise.org%3A6969","udp%3A%2F%2Fzer0day.ch%3A1337","udp%3A%2F%2Fopen.demonii.com%3A1337","udp%3A%2F%2Ftracker.coppersurfer.tk%3A6969","udp%3A%2F%2Fexodus.desync.com%3A6969"],"infoHash":"c2a66c617bbc12edf37f391ca329a7a0b13e22f8","infoHashBuffer":{"type":"Buffer","data":[194,166,108,97,123,188,18,237,243,127,57,28,163,41,167,160,177,62,34,248]},"announce":[],"urlList":[]}}